<?xml version="1.0" standalone="no"?>
<!DOCTYPE svg PUBLIC "-//W3C//DTD SVG 20010904//EN"
 "http://www.w3.org/TR/2001/REC-SVG-20010904/DTD/svg10.dtd">
<svg version="1.0" xmlns="http://www.w3.org/2000/svg"
 width="16.000000pt" height="16.000000pt" viewBox="0 0 16.000000 16.000000"
 preserveAspectRatio="xMidYMid meet">
<metadata>
Created by potrace 1.11, written by Peter Selinger 2001-2013
</metadata>
<g transform="translate(0.000000,16.000000) scale(0.006780,-0.006780)"
fill="#000000" stroke="none">
<path d="M629 2119 c-44 -26 -78 -82 -96 -159 -18 -76 -10 -264 16 -360 10
-41 16 -78 13 -81 -4 -3 -38 -16 -77 -28 -102 -34 -229 -98 -280 -143 -71 -63
-50 -76 26 -17 51 40 165 96 261 129 l82 28 33 -91 c30 -84 47 -112 64 -102 3
3 -9 46 -28 96 -19 50 -31 95 -26 100 9 9 136 35 229 47 l61 8 -47 -75 c-93
-152 -101 -169 -85 -174 10 -4 33 25 75 97 34 56 72 115 85 132 l23 29 221 0
c183 0 223 -3 235 -15 8 -8 45 -64 82 -125 37 -60 72 -113 77 -117 23 -14 25
4 5 40 -28 52 -96 163 -114 188 -14 20 -13 21 8 18 52 -7 193 -28 198 -29 3
-1 22 -5 43 -9 20 -5 37 -14 37 -21 0 -8 -13 -49 -30 -92 -35 -91 -37 -108
-13 -95 9 6 31 50 49 98 36 99 28 96 128 62 86 -28 199 -84 248 -121 51 -39
75 -50 83 -37 7 12 -103 93 -175 130 -30 15 -93 40 -140 56 -47 15 -89 31 -94
35 -5 4 -4 26 2 52 32 125 36 351 8 426 -48 131 -141 170 -289 120 -70 -23
-231 -127 -292 -188 -22 -22 -44 -40 -50 -40 -5 0 -32 20 -60 45 -66 59 -196
145 -265 174 -80 34 -184 38 -231 9z m248 -54 c80 -37 146 -83 233 -160 l51
-45 -43 -47 c-24 -26 -48 -53 -53 -59 -11 -11 -129 -168 -130 -171 0 -1 -20
-4 -45 -8 -42 -6 -202 -32 -262 -42 -24 -5 -27 -1 -42 51 -46 158 -43 357 8
454 43 84 145 93 283 27z m833 26 c66 -35 103 -155 96 -307 -4 -81 -8 -109
-31 -216 -4 -21 -10 -38 -14 -38 -3 0 -40 6 -81 14 -74 14 -108 20 -205 32
-27 3 -51 9 -53 13 -5 13 -82 113 -148 192 l-66 79 34 34 c48 49 161 132 221
163 108 55 188 66 247 34z m-489 -299 c19 -21 45 -52 59 -68 32 -38 103 -134
98 -134 -5 -1 -383 -1 -392 -1 -15 1 178 241 194 241 4 0 23 -17 41 -38z"/>
<path d="M732 1250 c-66 -40 -66 -158 0 -204 28 -20 97 -21 125 -1 11 8 26 29
32 46 10 29 10 30 -17 27 -15 -2 -33 -11 -40 -20 -16 -22 -55 -23 -73 -2 -21
25 -17 93 6 110 21 16 55 9 68 -12 4 -8 21 -14 37 -14 23 0 27 4 23 19 -15 58
-103 86 -161 51z"/>
<path d="M1204 1256 c-17 -8 -34 -22 -39 -32 -43 -105 -4 -194 85 -194 45 0
101 43 81 63 -10 9 -15 8 -24 -4 -52 -68 -141 -21 -128 68 8 53 22 72 58 79
26 5 36 2 56 -20 43 -46 66 -28 25 18 -28 31 -72 39 -114 22z"/>
<path d="M1453 1263 c-39 -7 -73 -59 -73 -109 0 -81 36 -124 103 -124 103 0
144 166 54 220 -32 20 -42 21 -84 13z m67 -33 c24 -13 41 -67 34 -105 -8 -45
-31 -65 -75 -65 -48 0 -69 27 -69 91 0 39 5 51 26 68 29 23 55 26 84 11z"/>
<path d="M20 1146 l0 -115 28 2 c24 2 27 7 30 40 4 49 26 49 49 0 15 -32 24
-38 51 -40 17 -1 32 1 32 3 0 3 -10 23 -21 46 -20 40 -20 42 -3 55 11 8 17 26
17 49 0 56 -28 74 -114 74 l-69 0 0 -114z m114 59 c19 -19 11 -41 -16 -49 -30
-7 -38 0 -38 35 0 22 5 29 19 29 11 0 26 -7 35 -15z"/>
<path d="M250 1146 l0 -113 63 -1 c78 -1 97 4 97 29 0 16 -7 19 -50 19 -46 0
-50 2 -50 24 0 21 4 23 45 21 41 -2 45 0 45 22 0 21 -5 23 -45 23 -38 0 -45 3
-45 20 0 21 2 22 60 24 28 1 36 5 38 24 3 21 1 22 -77 22 l-81 0 0 -114z"/>
<path d="M517 1253 c-13 -21 -73 -213 -69 -218 3 -3 16 -5 28 -5 17 0 25 7 30
25 3 14 9 25 13 26 42 5 55 4 67 -8 8 -8 14 -21 14 -28 0 -9 11 -13 30 -13 17
1 30 6 30 12 -1 6 -16 56 -34 111 -34 100 -34 100 -69 103 -19 2 -38 -1 -40
-5z m39 -124 c-26 -6 -31 8 -15 47 l11 29 13 -35 c11 -32 10 -35 -9 -41z"/>
<path d="M920 1237 c0 -19 5 -23 33 -22 l32 0 3 -93 3 -93 27 3 c27 3 27 3 28
86 0 87 8 104 46 97 13 -3 18 2 18 21 0 24 -1 24 -95 24 -92 0 -95 -1 -95 -23z"/>
<path d="M1635 1151 c0 -61 4 -113 8 -118 15 -15 23 18 22 88 -1 38 1 72 4 74
4 2 33 -35 65 -81 33 -47 64 -83 70 -81 7 2 12 46 14 115 2 94 0 112 -12 112
-12 0 -16 -18 -18 -87 l-3 -86 -59 86 c-81 119 -92 116 -91 -22z"/>
<path d="M1878 1253 c-4 -7 -3 -191 1 -216 0 -5 7 -7 14 -4 6 2 12 19 13 38 1
19 2 39 3 46 0 7 21 13 46 15 25 2 45 8 45 13 0 11 -4 12 -58 14 -36 1 -37 3
-38 36 0 22 4 35 13 36 7 1 31 2 53 3 22 0 41 6 43 11 2 12 -129 20 -135 8z"/>
<path d="M2076 1237 c-16 -13 -27 -29 -25 -36 3 -9 12 -6 32 9 l27 21 0 -100
c0 -83 3 -101 15 -101 12 0 15 19 15 115 0 103 -2 115 -17 115 -10 0 -31 -11
-47 -23z"/>
<path d="M2200 1247 c0 -9 16 -13 55 -12 33 1 55 -3 55 -9 0 -6 -20 -50 -45
-98 -25 -48 -45 -90 -45 -93 0 -3 6 -5 14 -5 13 0 116 194 116 219 0 7 -27 11
-75 11 -55 0 -75 -3 -75 -13z"/>
<path d="M210 971 c0 -9 123 -82 180 -108 25 -11 70 -28 100 -38 30 -10 58
-20 62 -24 4 -4 3 -22 -2 -41 -27 -93 -34 -325 -11 -395 21 -64 58 -113 103
-136 105 -54 304 22 483 184 l60 54 35 -34 c54 -53 170 -138 225 -166 188 -95
309 -68 366 82 28 72 34 242 13 351 -20 108 -22 104 44 124 104 31 292 127
292 148 0 15 -36 2 -118 -41 -77 -39 -210 -91 -237 -91 -6 0 -21 31 -33 68
-14 45 -27 69 -37 69 -19 0 -19 4 6 -78 12 -39 20 -72 18 -74 -2 -2 -17 -5
-34 -8 -16 -3 -55 -10 -85 -16 -30 -7 -84 -14 -120 -17 -36 -4 -68 -8 -72 -11
-16 -9 -6 12 47 98 57 92 64 109 43 109 -7 0 -40 -43 -72 -95 -32 -52 -66
-100 -74 -107 -10 -9 -73 -12 -214 -12 l-200 0 -20 24 c-11 14 -43 62 -71 108
-27 45 -56 82 -64 82 -26 0 -18 -15 94 -187 13 -20 13 -22 -4 -19 -10 2 -47 7
-83 11 -81 8 -213 34 -222 43 -3 4 4 40 17 80 21 65 21 73 7 70 -11 -2 -26
-29 -42 -75 l-25 -71 -80 29 c-89 32 -107 41 -180 83 -48 28 -95 41 -95 27z
m445 -190 c22 -5 58 -12 80 -15 22 -4 54 -9 70 -11 17 -3 57 -7 89 -10 33 -3
60 -6 61 -8 5 -11 129 -162 164 -200 l44 -48 -43 -40 c-66 -62 -159 -125 -243
-164 -156 -75 -261 -47 -304 79 -18 54 -24 223 -10 301 24 138 20 132 92 116z
m1129 -23 c27 -135 28 -309 2 -386 -43 -127 -123 -157 -274 -100 -63 23 -175
98 -252 166 l-54 49 55 64 c30 35 77 92 104 127 31 40 55 62 69 63 12 0 28 2
36 3 8 2 42 6 76 10 34 4 90 13 125 21 99 21 106 20 113 -17z m-424 -29 c0 -6
-133 -173 -155 -196 -8 -7 -18 -13 -23 -13 -9 0 -174 191 -180 208 -1 4 79 7
178 7 99 0 180 -3 180 -6z"/>
</g>
</svg>
