<?xml version="1.0" encoding="utf-8"?>
<!-- Generator: Adobe Illustrator 16.0.4, SVG Export Plug-In . SVG Version: 6.00 Build 0)  -->
<!DOCTYPE svg PUBLIC "-//W3C//DTD SVG 1.1//EN" "http://www.w3.org/Graphics/SVG/1.1/DTD/svg11.dtd">
<svg version="1.1" id="Layer_1" xmlns="http://www.w3.org/2000/svg" xmlns:xlink="http://www.w3.org/1999/xlink" x="0px" y="0px"
	 width="541.5px" height="124.7px" viewBox="0 0 541.5 124.7" enable-background="new 0 0 541.5 124.7" xml:space="preserve">
<g>
	<path fill="#009FE3" d="M198.5,108.3c-2.4,0-4.7-0.5-6.8-1.4c-2.1-0.9-3.9-2.2-5.4-3.7c-1.5-1.6-2.7-3.4-3.6-5.6
		c-0.9-2.1-1.3-4.4-1.3-6.9v-0.1c0-2.4,0.4-4.7,1.3-6.8c0.9-2.1,2.1-4,3.6-5.6c1.5-1.6,3.3-2.9,5.4-3.8c2.1-0.9,4.4-1.4,6.8-1.4
		c1.5,0,2.9,0.1,4.2,0.4c1.3,0.3,2.4,0.6,3.4,1.1c1.1,0.5,2.1,1.1,3,1.7c0.9,0.7,1.8,1.4,2.7,2.2l-1.8,1.9c-0.7-0.7-1.5-1.4-2.3-2
		c-0.8-0.6-1.7-1.1-2.6-1.6c-0.9-0.4-1.9-0.8-3-1.1c-1.1-0.3-2.3-0.4-3.5-0.4c-2.1,0-4,0.4-5.7,1.2c-1.8,0.8-3.3,1.9-4.6,3.2
		c-1.3,1.4-2.3,3-3,4.9s-1.1,3.9-1.1,6v0.1c0,2.1,0.4,4.2,1.1,6c0.7,1.9,1.8,3.5,3.1,4.9c1.3,1.4,2.8,2.5,4.6,3.3s3.7,1.2,5.7,1.2
		c2.5,0,4.6-0.5,6.4-1.4c1.8-0.9,3.6-2.2,5.3-3.9l1.7,1.7c-0.9,0.9-1.8,1.7-2.8,2.4s-2,1.4-3.1,1.9c-1.1,0.5-2.3,0.9-3.5,1.2
		C201.5,108.2,200.1,108.3,198.5,108.3z"/>
	<path fill="#009FE3" d="M235.3,108.3c-2.6,0-4.9-0.5-7-1.4c-2.1-1-3.9-2.2-5.4-3.9c-1.5-1.6-2.7-3.5-3.5-5.6
		c-0.8-2.1-1.2-4.3-1.2-6.7v-0.1c0-2.3,0.4-4.6,1.2-6.7c0.8-2.1,2-4,3.5-5.6c1.5-1.6,3.3-2.9,5.4-3.9s4.5-1.4,7.1-1.4
		c2.6,0,5,0.5,7.1,1.4c2.1,1,3.9,2.2,5.4,3.9c1.5,1.6,2.7,3.5,3.5,5.6c0.8,2.1,1.2,4.3,1.2,6.7v0.1c0,2.3-0.4,4.6-1.2,6.7
		c-0.8,2.1-2,4-3.5,5.6s-3.3,2.9-5.4,3.9C240.2,107.8,237.9,108.3,235.3,108.3z M235.3,106c2.1,0,4.1-0.4,5.8-1.2
		c1.8-0.8,3.3-1.9,4.6-3.3c1.3-1.4,2.3-3,3-4.9c0.7-1.9,1.1-3.8,1.1-6v-0.1c0-2.1-0.4-4.1-1.1-6c-0.7-1.9-1.7-3.5-3-4.9
		c-1.3-1.4-2.8-2.5-4.6-3.3c-1.8-0.8-3.7-1.2-5.9-1.2c-2.1,0-4.1,0.4-5.8,1.2c-1.8,0.8-3.3,1.9-4.6,3.3s-2.3,3-3,4.9s-1.1,3.8-1.1,6
		v0.1c0,2.1,0.4,4.1,1.1,6c0.7,1.9,1.7,3.5,3,4.9s2.8,2.5,4.6,3.3C231.3,105.6,233.2,106,235.3,106z"/>
	<path fill="#009FE3" d="M262.6,73.5h2.4l23.6,29.8V73.5h2.4v34.2h-1.9L265,77.3v30.4h-2.4V73.5z"/>
	<path fill="#009FE3" d="M303,73.5h24v2.3h-21.5v14.1h19.3v2.3h-19.3v15.5H303V73.5z"/>
	<path fill="#009FE3" d="M335.7,73.5H360v2.3h-21.8v13.5h19.6v2.3h-19.6v13.8h22v2.3h-24.6L335.7,73.5L335.7,73.5z"/>
	<path fill="#009FE3" d="M369.1,73.5h14.4c2.1,0,4,0.3,5.6,0.9s3,1.4,4,2.5c0.8,0.8,1.4,1.8,1.9,2.9c0.5,1.1,0.7,2.3,0.7,3.5v0.1
		c0,1.4-0.3,2.7-0.8,3.8c-0.5,1.1-1.2,2.1-2.1,2.9c-0.9,0.8-2,1.5-3.2,2s-2.5,0.9-4,1l11.3,14.6h-3.2l-10.9-14.2h-0.1h-11.1v14.2
		h-2.5V73.5L369.1,73.5z M383.2,91.3c1.4,0,2.8-0.2,4-0.5c1.2-0.4,2.3-0.9,3.2-1.5c0.9-0.7,1.6-1.5,2.1-2.5s0.8-2.1,0.8-3.3v-0.1
		c0-2.3-0.9-4.1-2.6-5.5c-1.7-1.4-4.1-2-7.3-2h-11.7v15.4H383.2z"/>
	<path fill="#009FE3" d="M405.9,73.5h24.3v2.3h-21.8v13.5H428v2.3h-19.6v13.8h22v2.3h-24.6L405.9,73.5L405.9,73.5z"/>
	<path fill="#009FE3" d="M439.3,73.5h2.4l23.6,29.8V73.5h2.4v34.2h-1.9l-24.1-30.4v30.4h-2.4V73.5z"/>
	<path fill="#009FE3" d="M494.9,108.3c-2.4,0-4.7-0.5-6.8-1.4c-2.1-0.9-3.9-2.2-5.4-3.7c-1.5-1.6-2.7-3.4-3.6-5.6
		c-0.9-2.1-1.3-4.4-1.3-6.9v-0.1c0-2.4,0.4-4.7,1.3-6.8c0.9-2.1,2.1-4,3.6-5.6c1.5-1.6,3.3-2.9,5.4-3.8s4.4-1.4,6.8-1.4
		c1.5,0,2.9,0.1,4.2,0.4c1.2,0.3,2.4,0.6,3.4,1.1c1.1,0.5,2.1,1.1,3,1.7c0.9,0.7,1.8,1.4,2.7,2.2l-1.8,1.9c-0.8-0.7-1.5-1.4-2.3-2
		c-0.8-0.6-1.7-1.1-2.6-1.6c-0.9-0.4-1.9-0.8-3-1.1c-1.1-0.3-2.3-0.4-3.5-0.4c-2.1,0-4,0.4-5.7,1.2c-1.8,0.8-3.3,1.9-4.6,3.2
		c-1.3,1.4-2.3,3-3,4.9c-0.7,1.9-1.1,3.9-1.1,6v0.1c0,2.1,0.4,4.2,1.1,6c0.7,1.9,1.8,3.5,3.1,4.9s2.8,2.5,4.6,3.3s3.7,1.2,5.7,1.2
		c2.5,0,4.6-0.5,6.4-1.4c1.8-0.9,3.6-2.2,5.3-3.9l1.7,1.7c-0.9,0.9-1.8,1.7-2.8,2.4s-2,1.4-3.1,1.9s-2.3,0.9-3.5,1.2
		C497.8,108.2,496.4,108.3,494.9,108.3z"/>
	<path fill="#009FE3" d="M517,73.5h24.3v2.3h-21.8v13.5h19.6v2.3h-19.6v13.8h22v2.3H517V73.5z"/>
</g>
<g id="NEOS">
	<path fill="#28234C" d="M324.7,50.3l3.1-3.4c3.4,3,6.6,4.7,11.2,4.7c4.1,0,7.1-2.1,7.1-5.2c0-2.8-1.6-4.3-8.3-6
		c-7.8-2-11.8-4.7-11.8-10.2c0-5.7,5.2-9.6,11.9-9.6c5,0,8.6,1.6,12.2,4.4l-2.9,3.7c-3.3-2.5-6-3.6-9.4-3.6c-3.8,0-6.7,1.9-6.7,4.8
		c0,2.8,1.8,4.4,8.8,6.1c7.6,1.8,11.3,4.8,11.3,10.1c0,6.2-5.3,10-12.3,10C333.4,56,328.8,53.9,324.7,50.3z"/>
	<path fill="#28234C" d="M273.4,38.2c0-9.7,7.5-17.7,18-17.7s18,8,18,17.7c0,9.7-7.5,17.7-18,17.7C280.9,56,273.4,47.9,273.4,38.2z
		 M304.2,38.2c0-7.5-5.3-13.2-12.8-13.2s-12.8,5.7-12.8,13.2s5.3,13.2,12.8,13.2S304.2,45.7,304.2,38.2z"/>
	<path fill="#28234C" d="M257.8,21.1v4.5h-20.2v10.3h18v4.5h-18V51h20.5v4.5h-25.5V21.1H257.8z"/>
	<path fill="#28234C" d="M188.9,21.1L209,46.4V21.1h4.9v34.3h-4.1l-20.6-26v26h-4.9V21.1H188.9z"/>
</g>
<g>
	<polygon fill="#28234C" points="89,0 68.3,15.1 68.3,46.8 89,76.1 	"/>
	<polygon fill="#28234C" points="89,112.8 9.2,0 0,6.8 0,124.7 20.8,109.6 20.8,51.2 72.7,124.7 95.4,124.7 111.7,112.8 	"/>
	<polygon fill="#009FE3" points="20.8,51.2 20.8,109.6 0,124.7 22.7,124.7 43.5,109.6 43.5,83.4 	"/>
	<polygon fill="#009FE3" points="89,76.1 89,0 111.7,0 111.7,112.8 89,112.8 9.2,0 35.2,0 	"/>
</g>
</svg>
