<?xml version="1.0" encoding="UTF-8" standalone="no"?>
<!DOCTYPE svg PUBLIC "-//W3C//DTD SVG 1.1//EN" "http://www.w3.org/Graphics/SVG/1.1/DTD/svg11.dtd">
<svg width="100%" height="100%" viewBox="0 0 542 174" version="1.1" xmlns="http://www.w3.org/2000/svg" xmlns:xlink="http://www.w3.org/1999/xlink" xml:space="preserve" xmlns:serif="http://www.serif.com/" style="fill-rule:evenodd;clip-rule:evenodd;stroke-linejoin:round;stroke-miterlimit:1.41421;">
    <g id="Layer_1">
        <path d="M186.75,155.94L188,155.94L188,163.74L198.75,163.74L198.75,155.94L200,155.94L200,172.74L198.75,172.74L198.75,164.87L188,164.87L188,172.74L186.75,172.74L186.75,155.94Z" style="fill:rgb(0,159,227);fill-rule:nonzero;"/>
        <path d="M212.33,155.82L213.53,155.82L221.35,172.74L220,172.74L217.86,168.04L207.95,168.04L205.81,172.74L204.51,172.74L212.33,155.82ZM217.33,166.91L212.91,157.19L208.47,166.91L217.33,166.91Z" style="fill:rgb(0,159,227);fill-rule:nonzero;"/>
        <path d="M225.87,155.94L227,155.94L233.74,165.88L240.48,155.94L241.66,155.94L241.66,172.74L240.41,172.74L240.41,158.14L233.75,167.81L233.65,167.81L227,158.14L227,172.73L225.82,172.73L225.87,155.94Z" style="fill:rgb(0,159,227);fill-rule:nonzero;"/>
        <path d="M247.66,155.94L254.58,155.94C255.447,155.927 256.309,156.062 257.13,156.34C257.807,156.563 258.426,156.936 258.94,157.43C259.649,158.127 260.04,159.086 260.02,160.08C260.031,160.594 259.946,161.106 259.77,161.59C259.615,162.001 259.392,162.383 259.11,162.72C258.844,163.036 258.53,163.31 258.18,163.53C257.861,163.735 257.527,163.916 257.18,164.07C257.679,164.195 258.165,164.369 258.63,164.59C259.071,164.794 259.476,165.068 259.83,165.4C260.172,165.729 260.45,166.119 260.65,166.55C260.864,167.027 260.97,167.547 260.96,168.07C260.971,168.732 260.823,169.387 260.53,169.98C260.242,170.549 259.824,171.042 259.31,171.42C258.739,171.833 258.099,172.141 257.42,172.33C256.619,172.553 255.791,172.661 254.96,172.65L247.69,172.65L247.66,155.94ZM254.45,163.72C255.035,163.726 255.617,163.648 256.18,163.49C256.673,163.356 257.138,163.132 257.55,162.83C257.933,162.544 258.241,162.17 258.45,161.74C258.672,161.272 258.781,160.758 258.77,160.24C258.794,159.358 258.392,158.516 257.69,157.98C256.777,157.35 255.677,157.047 254.57,157.12L248.91,157.12L248.91,163.77L254.45,163.72ZM254.99,171.62C256.2,171.683 257.399,171.357 258.41,170.69C259.226,170.115 259.703,169.168 259.68,168.17C259.712,167.187 259.21,166.261 258.37,165.75C257.214,165.108 255.899,164.81 254.58,164.89L248.9,164.89L248.9,171.66L254.99,171.62Z" style="fill:rgb(0,159,227);fill-rule:nonzero;"/>
        <path d="M272.57,173C271.626,173.01 270.688,172.851 269.8,172.53C268.981,172.231 268.237,171.756 267.62,171.14C266.983,170.493 266.495,169.715 266.19,168.86C265.839,167.861 265.67,166.808 265.69,165.75L265.69,155.93L266.94,155.93L266.94,165.63C266.829,167.305 267.367,168.96 268.44,170.25C270.764,172.365 274.346,172.4 276.71,170.33C277.802,169.066 278.346,167.416 278.22,165.75L278.22,155.93L279.47,155.93L279.47,165.6C279.491,166.681 279.321,167.757 278.97,168.78C278.668,169.646 278.184,170.437 277.55,171.1C276.939,171.726 276.198,172.211 275.38,172.52C274.481,172.851 273.528,173.014 272.57,173Z" style="fill:rgb(0,159,227);fill-rule:nonzero;"/>
        <path d="M285.15,155.94L292.21,155.94C293.149,155.922 294.083,156.071 294.97,156.38C295.717,156.632 296.4,157.045 296.97,157.59C297.372,157.99 297.692,158.466 297.91,158.99C298.138,159.535 298.253,160.12 298.25,160.71C298.261,161.356 298.135,161.997 297.88,162.59C297.648,163.13 297.308,163.617 296.88,164.02C296.423,164.443 295.895,164.781 295.32,165.02C294.679,165.28 294.007,165.455 293.32,165.54L298.86,172.72L297.28,172.72L291.93,165.72L286.43,165.72L286.43,172.72L285.18,172.72L285.15,155.94ZM292.06,164.65C292.736,164.662 293.41,164.574 294.06,164.39C294.619,164.234 295.144,163.976 295.61,163.63C296.027,163.308 296.369,162.898 296.61,162.43C296.863,161.928 296.99,161.372 296.98,160.81C297.023,159.76 296.553,158.752 295.72,158.11C294.679,157.388 293.425,157.035 292.16,157.11L286.42,157.11L286.42,164.69L292.06,164.65Z" style="fill:rgb(0,159,227);fill-rule:nonzero;"/>
        <path d="M311.16,173C309.939,173.021 308.727,172.79 307.6,172.32C306.595,171.894 305.692,171.26 304.95,170.46C304.22,169.662 303.656,168.727 303.29,167.71C302.9,166.637 302.703,165.502 302.71,164.36C302.707,163.24 302.907,162.129 303.3,161.08C303.677,160.058 304.248,159.117 304.98,158.31C305.721,157.502 306.615,156.849 307.61,156.39C308.679,155.9 309.844,155.654 311.02,155.67C311.649,155.665 312.278,155.711 312.9,155.81C313.44,155.898 313.97,156.043 314.48,156.24C314.963,156.431 315.429,156.666 315.87,156.94C316.319,157.222 316.747,157.536 317.15,157.88L316.33,158.82C316.011,158.536 315.677,158.269 315.33,158.02C314.958,157.764 314.559,157.549 314.14,157.38C313.678,157.195 313.199,157.054 312.71,156.96C312.137,156.85 311.554,156.796 310.97,156.8C310,156.788 309.04,156.993 308.16,157.4C307.339,157.781 306.604,158.326 306,159C305.38,159.705 304.895,160.519 304.57,161.4C304.223,162.32 304.046,163.296 304.05,164.28C304.042,165.301 304.208,166.315 304.54,167.28C304.845,168.17 305.332,168.988 305.97,169.68C306.608,170.36 307.381,170.898 308.24,171.26C309.19,171.656 310.211,171.853 311.24,171.84C311.764,171.839 312.287,171.785 312.8,171.68C313.294,171.581 313.779,171.44 314.25,171.26C314.695,171.091 315.127,170.887 315.54,170.65C315.914,170.438 316.268,170.193 316.6,169.92L316.6,165.11L311,165.11L311,164L317.79,164L317.79,170.46C316.936,171.185 315.979,171.778 314.95,172.22C313.757,172.747 312.464,173.013 311.16,173Z" style="fill:rgb(0,159,227);fill-rule:nonzero;"/>
        <path d="M330.05,171.8L336.31,166.14C336.977,165.52 337.557,164.953 338.05,164.44C338.471,163.991 338.856,163.51 339.2,163C339.473,162.602 339.689,162.168 339.84,161.71C339.967,161.292 340.032,160.857 340.03,160.42C340.038,159.907 339.932,159.398 339.72,158.93C339.523,158.498 339.241,158.11 338.89,157.79C338.54,157.475 338.133,157.23 337.69,157.07C337.225,156.901 336.734,156.817 336.24,156.82C335.265,156.789 334.305,157.069 333.5,157.62C332.647,158.264 331.91,159.049 331.32,159.94L330.38,159.32C330.723,158.793 331.104,158.291 331.52,157.82C331.904,157.39 332.341,157.011 332.82,156.69C333.304,156.369 333.833,156.123 334.39,155.96C335.04,155.776 335.714,155.688 336.39,155.7C337.072,155.693 337.75,155.812 338.39,156.05C339.555,156.478 340.5,157.358 341.01,158.49C341.267,159.062 341.396,159.683 341.39,160.31C341.395,160.856 341.314,161.399 341.15,161.92C340.97,162.454 340.714,162.959 340.39,163.42C339.997,163.981 339.559,164.51 339.08,165C338.553,165.553 337.92,166.167 337.18,166.84L332,171.54L341.5,171.54L341.5,172.74L330.05,172.74L330.05,171.8Z" style="fill:rgb(0,159,227);fill-rule:nonzero;"/>
        <path d="M352.51,173C351.503,173.013 350.509,172.772 349.62,172.3C348.767,171.837 348.023,171.196 347.44,170.42C346.82,169.589 346.353,168.654 346.06,167.66C345.737,166.59 345.575,165.478 345.58,164.36C345.575,163.238 345.74,162.122 346.07,161.05C346.368,160.051 346.843,159.113 347.47,158.28C348.062,157.5 348.812,156.852 349.67,156.38C350.557,155.9 351.552,155.655 352.56,155.67C353.567,155.657 354.561,155.898 355.45,156.37C356.303,156.833 357.047,157.474 357.63,158.25C358.245,159.079 358.709,160.01 359,161C359.323,162.07 359.485,163.182 359.48,164.3C359.484,165.422 359.319,166.538 358.99,167.61C358.691,168.609 358.217,169.547 357.59,170.38C356.998,171.16 356.248,171.808 355.39,172.28C354.507,172.762 353.516,173.01 352.51,173ZM352.51,171.87C353.332,171.882 354.142,171.668 354.85,171.25C355.556,170.827 356.163,170.257 356.63,169.58C357.136,168.847 357.518,168.037 357.76,167.18C358.027,166.264 358.162,165.314 358.16,164.36C358.161,163.403 358.026,162.45 357.76,161.53C357.519,160.668 357.134,159.853 356.62,159.12C356.143,158.442 355.53,157.87 354.82,157.44C353.371,156.601 351.579,156.601 350.13,157.44C349.424,157.863 348.817,158.433 348.35,159.11C347.844,159.842 347.462,160.653 347.22,161.51C346.953,162.426 346.818,163.376 346.82,164.33C346.818,165.284 346.953,166.234 347.22,167.15C347.464,168.011 347.849,168.825 348.36,169.56C348.835,170.243 349.448,170.819 350.16,171.25C350.882,171.689 351.715,171.915 352.56,171.9L352.51,171.87Z" style="fill:rgb(0,159,227);fill-rule:nonzero;"/>
        <path d="M366.19,157.11L362.95,158.21L362.61,157.21L366.46,155.79L367.46,155.79L367.46,172.71L366.21,172.71L366.19,157.11Z" style="fill:rgb(0,159,227);fill-rule:nonzero;"/>
        <path d="M382.27,157.14L372.53,157.14L372.53,155.94L383.67,155.94L383.67,156.85L376,172.74L374.63,172.74L382.27,157.14Z" style="fill:rgb(0,159,227);fill-rule:nonzero;"/>
        <path d="M198.53,108.32C193.953,108.366 189.556,106.515 186.39,103.21C184.85,101.595 183.638,99.696 182.82,97.62C181.95,95.428 181.512,93.088 181.53,90.73L181.53,90.63C181.515,88.288 181.953,85.966 182.82,83.79C183.645,81.703 184.856,79.789 186.39,78.15C189.561,74.782 194.004,72.895 198.63,72.95C200.023,72.937 201.414,73.067 202.78,73.34C203.965,73.583 205.119,73.959 206.22,74.46C207.273,74.94 208.277,75.519 209.22,76.19C210.168,76.874 211.073,77.615 211.93,78.41L210.12,80.27C209.375,79.56 208.59,78.892 207.77,78.27C206.958,77.651 206.083,77.118 205.16,76.68C204.199,76.227 203.194,75.876 202.16,75.63C200.999,75.362 199.811,75.231 198.62,75.24C194.726,75.202 190.991,76.808 188.34,79.66C187.044,81.078 186.027,82.726 185.34,84.52C184.597,86.432 184.224,88.468 184.24,90.52L184.24,90.62C184.227,92.673 184.607,94.71 185.36,96.62C186.063,98.426 187.098,100.084 188.41,101.51C189.699,102.895 191.253,104.007 192.98,104.78C194.778,105.588 196.729,105.997 198.7,105.98C200.93,106.037 203.142,105.561 205.15,104.59C207.117,103.559 208.914,102.234 210.48,100.66L212.19,102.32C211.301,103.18 210.362,103.988 209.38,104.74C208.421,105.471 207.389,106.102 206.3,106.62C205.174,107.153 203.994,107.562 202.78,107.84C201.387,108.165 199.961,108.326 198.53,108.32Z" style="fill:rgb(0,159,227);fill-rule:nonzero;"/>
        <path d="M235.25,108.32C230.538,108.387 226.01,106.461 222.79,103.02C221.284,101.398 220.106,99.499 219.32,97.43C218.503,95.295 218.089,93.026 218.1,90.74L218.1,90.64C218.092,88.342 218.516,86.062 219.35,83.92C220.149,81.838 221.333,79.924 222.84,78.28C224.373,76.628 226.228,75.308 228.29,74.4C230.513,73.421 232.921,72.93 235.35,72.96C240.065,72.879 244.598,74.808 247.81,78.26C249.315,79.883 250.493,81.781 251.28,83.85C252.096,85.986 252.51,88.254 252.5,90.54C252.517,90.551 252.527,90.57 252.527,90.59C252.527,90.61 252.517,90.629 252.5,90.64C252.508,92.938 252.084,95.218 251.25,97.36C250.451,99.442 249.267,101.356 247.76,103C246.234,104.647 244.391,105.967 242.34,106.88C240.107,107.863 237.689,108.354 235.25,108.32ZM235.35,106.02C239.3,106.069 243.091,104.444 245.78,101.55C247.082,100.137 248.101,98.487 248.78,96.69C249.508,94.774 249.871,92.739 249.85,90.69L249.85,90.59C249.865,88.539 249.492,86.503 248.75,84.59C248.068,82.785 247.05,81.126 245.75,79.7C244.446,78.303 242.875,77.181 241.13,76.4C235.578,73.892 229.004,75.203 224.84,79.65C223.538,81.063 222.519,82.713 221.84,84.51C221.108,86.425 220.742,88.46 220.76,90.51L220.76,90.61C220.745,92.661 221.118,94.697 221.86,96.61C222.541,98.415 223.559,100.075 224.86,101.5C226.164,102.898 227.735,104.02 229.48,104.8C231.327,105.619 233.33,106.028 235.35,106L235.35,106.02Z" style="fill:rgb(0,159,227);fill-rule:nonzero;"/>
        <path d="M262.58,73.53L265,73.53L288.64,103.28L288.64,73.53L291,73.53L291,107.73L289.09,107.73L265,77.34L265,107.73L262.61,107.73L262.58,73.53Z" style="fill:rgb(0,159,227);fill-rule:nonzero;"/>
        <path d="M303,73.53L327,73.53L327,75.83L305.49,75.83L305.49,89.95L324.84,89.95L324.84,92.25L305.49,92.25L305.49,107.74L303,107.74L303,73.53Z" style="fill:rgb(0,159,227);fill-rule:nonzero;"/>
        <path d="M335.74,73.53L360.07,73.53L360.07,75.83L338.28,75.83L338.28,89.36L357.87,89.36L357.87,91.66L338.28,91.66L338.28,105.44L360.28,105.44L360.28,107.74L335.74,107.74L335.74,73.53Z" style="fill:rgb(0,159,227);fill-rule:nonzero;"/>
        <path d="M369.13,73.53L383.5,73.53C385.412,73.495 387.315,73.8 389.12,74.43C390.616,74.955 391.98,75.798 393.12,76.9C393.928,77.721 394.567,78.693 395,79.76C395.456,80.867 395.688,82.053 395.68,83.25L395.68,83.35C395.702,84.666 395.443,85.972 394.92,87.18C394.429,88.285 393.714,89.276 392.82,90.09C391.885,90.937 390.809,91.614 389.64,92.09C388.355,92.594 387.011,92.93 385.64,93.09L397,107.73L393.78,107.73L382.88,93.56L371.67,93.56L371.67,107.73L369.13,107.73L369.13,73.53ZM383.2,91.26C384.552,91.274 385.9,91.092 387.2,90.72C388.335,90.404 389.403,89.882 390.35,89.18C391.216,88.527 391.926,87.69 392.43,86.73C392.951,85.706 393.212,84.569 393.19,83.42L393.19,83.32C393.276,81.185 392.321,79.136 390.63,77.83C388.923,76.497 386.503,75.83 383.37,75.83L371.67,75.83L371.67,91.26L383.2,91.26Z" style="fill:rgb(0,159,227);fill-rule:nonzero;"/>
        <path d="M405.88,73.53L430.21,73.53L430.21,75.83L408.42,75.83L408.42,89.36L428,89.36L428,91.66L408.42,91.66L408.42,105.44L430.42,105.44L430.42,107.74L405.88,107.74L405.88,73.53Z" style="fill:rgb(0,159,227);fill-rule:nonzero;"/>
        <path d="M439.27,73.53L441.67,73.53L465.31,103.28L465.31,73.53L467.7,73.53L467.7,107.73L465.8,107.73L441.67,77.34L441.67,107.73L439.28,107.73L439.27,73.53Z" style="fill:rgb(0,159,227);fill-rule:nonzero;"/>
        <path d="M494.9,108.32C490.323,108.366 485.926,106.515 482.76,103.21C481.22,101.595 480.008,99.696 479.19,97.62C478.317,95.429 477.875,93.089 477.89,90.73L477.89,90.63C477.879,88.288 478.32,85.965 479.19,83.79C480.015,81.703 481.226,79.789 482.76,78.15C485.93,74.778 490.373,72.887 495,72.94C496.393,72.927 497.784,73.057 499.15,73.33C500.335,73.573 501.489,73.949 502.59,74.45C503.643,74.93 504.647,75.509 505.59,76.18C506.538,76.864 507.443,77.605 508.3,78.4L506.49,80.26C505.748,79.55 504.967,78.882 504.15,78.26C503.338,77.641 502.463,77.108 501.54,76.67C500.579,76.217 499.574,75.865 498.54,75.62C497.379,75.352 496.191,75.221 495,75.23C491.106,75.192 487.371,76.798 484.72,79.65C483.424,81.068 482.407,82.716 481.72,84.51C480.977,86.422 480.604,88.458 480.62,90.51L480.62,90.61C480.607,92.663 480.987,94.7 481.74,96.61C482.444,98.415 483.478,100.074 484.79,101.5C486.079,102.885 487.633,103.997 489.36,104.77C491.131,105.577 493.054,105.996 495,106C497.23,106.057 499.442,105.581 501.45,104.61C503.417,103.579 505.214,102.254 506.78,100.68L508.49,102.34C507.601,103.2 506.662,104.008 505.68,104.76C504.721,105.491 503.689,106.121 502.6,106.64C501.474,107.173 500.294,107.582 499.08,107.86C497.709,108.173 496.306,108.327 494.9,108.32Z" style="fill:rgb(0,159,227);fill-rule:nonzero;"/>
        <path d="M517,73.53L541.33,73.53L541.33,75.83L519.58,75.83L519.58,89.36L539.17,89.36L539.17,91.66L519.58,91.66L519.58,105.44L541.58,105.44L541.58,107.74L517,107.74L517,73.53Z" style="fill:rgb(0,159,227);fill-rule:nonzero;"/>
        <g id="NEOS">
            <path d="M324.71,50.27L327.77,46.84C331.18,49.84 334.33,51.49 338.98,51.49C343.13,51.49 346.09,49.38 346.09,46.25C346.09,43.46 344.51,41.99 337.75,40.25C329.91,38.25 325.96,35.55 325.96,30.06C325.96,24.38 331.19,20.46 337.9,20.46C342.36,20.419 346.689,21.985 350.09,24.87L347.23,28.54C344,26 341.19,25 337.84,25C334.04,25 331.13,26.86 331.13,29.8C331.13,32.74 333,34.16 340,35.88C347.55,37.69 351.25,40.68 351.25,45.97C351.25,52.14 345.92,55.97 338.96,55.97C333.654,55.982 328.544,53.938 324.71,50.27Z" style="fill:white;fill-rule:nonzero;"/>
            <path d="M273.43,38.23C273.429,38.14 273.428,38.05 273.428,37.96C273.428,28.085 281.553,19.96 291.428,19.96C301.302,19.96 309.428,28.085 309.428,37.96C309.428,47.834 301.304,55.959 291.43,55.96C291.286,55.964 291.143,55.965 290.999,55.965C281.361,55.965 273.429,48.034 273.429,38.395C273.429,38.34 273.429,38.285 273.43,38.23ZM304.18,38.23C304.18,30.74 298.9,25.06 291.4,25.06C283.9,25.06 278.62,30.74 278.62,38.23C278.62,45.72 283.9,51.4 291.39,51.4C298.88,51.4 304.18,45.72 304.18,38.23Z" style="fill:white;fill-rule:nonzero;"/>
            <path d="M257.83,21.08L257.83,25.54L237.6,25.54L237.6,35.83L255.6,35.83L255.6,40.34L237.6,40.34L237.6,50.91L258.08,50.91L258.08,55.37L232.62,55.37L232.62,21.08L257.83,21.08Z" style="fill:white;fill-rule:nonzero;"/>
            <path d="M188.89,21.08L209,46.41L209,21.08L213.88,21.08L213.88,55.37L209.78,55.37L189.15,29.37L189.15,55.37L184.27,55.37L184.27,21.08L188.89,21.08Z" style="fill:white;fill-rule:nonzero;"/>
        </g>
        <path d="M89.03,0L68.27,15.13L68.27,46.77L89.03,76.12L89.03,0Z" style="fill:rgb(0,159,227);fill-rule:nonzero;"/>
        <path d="M89.03,112.82L9.24,0L0,6.76L0,124.72L20.75,109.6L20.75,51.18L72.65,124.72L95.35,124.72L111.73,112.82L89.03,112.82Z" style="fill:rgb(0,159,227);fill-rule:nonzero;"/>
        <path d="M20.75,51.18L20.75,109.6L0,124.72L22.7,124.72L43.46,109.6L43.46,83.35L20.75,51.18Z" style="fill:white;fill-rule:nonzero;"/>
        <path d="M89.03,76.12L89.03,0L111.73,0L111.73,112.82L89.03,112.82L9.24,0L35.19,0L89.03,76.12Z" style="fill:white;fill-rule:nonzero;"/>
    </g>
</svg>
