<svg viewBox="0 0 542 174" xmlns="http://www.w3.org/2000/svg" fill-rule="evenodd" clip-rule="evenodd" stroke-linejoin="round" stroke-miterlimit="1.414"><g fill-rule="nonzero"><path d="M198.53 108.32a16.587 16.587 0 0 1-12.14-5.11 17.28 17.28 0 0 1-3.57-5.59 18.3 18.3 0 0 1-1.29-6.89v-.1a18.163 18.163 0 0 1 1.29-6.84 17.865 17.865 0 0 1 3.57-5.64 16.547 16.547 0 0 1 12.24-5.2 20.214 20.214 0 0 1 4.15.39 16.13 16.13 0 0 1 3.44 1.12 18.179 18.179 0 0 1 3 1.73 28.528 28.528 0 0 1 2.71 2.22l-1.81 1.86a27.474 27.474 0 0 0-2.35-2 14.703 14.703 0 0 0-2.61-1.59 15.383 15.383 0 0 0-3-1.05 15.227 15.227 0 0 0-3.54-.39 13.857 13.857 0 0 0-10.28 4.42 15.326 15.326 0 0 0-3 4.86 16.215 16.215 0 0 0-1.1 6v.1a16.082 16.082 0 0 0 1.12 6 15.558 15.558 0 0 0 3.05 4.89 14.127 14.127 0 0 0 4.57 3.27 13.666 13.666 0 0 0 5.72 1.2c2.23.057 4.442-.419 6.45-1.39a21.782 21.782 0 0 0 5.33-3.93l1.71 1.66a32.191 32.191 0 0 1-2.81 2.42 17.44 17.44 0 0 1-3.08 1.88 17.2 17.2 0 0 1-3.52 1.22 18.364 18.364 0 0 1-4.25.48zM235.25 108.32a16.746 16.746 0 0 1-12.46-5.3 17.186 17.186 0 0 1-3.47-5.59 18.473 18.473 0 0 1-1.22-6.69v-.1a18.347 18.347 0 0 1 1.25-6.72 17.769 17.769 0 0 1 3.49-5.64 16.514 16.514 0 0 1 5.45-3.88 16.998 16.998 0 0 1 7.06-1.44 16.637 16.637 0 0 1 12.46 5.3 17.23 17.23 0 0 1 3.47 5.59 18.52 18.52 0 0 1 1.22 6.69.06.06 0 0 1 0 .1 18.347 18.347 0 0 1-1.25 6.72 17.769 17.769 0 0 1-3.49 5.64 16.58 16.58 0 0 1-5.42 3.88 17.009 17.009 0 0 1-7.09 1.44zm.1-2.3a14.006 14.006 0 0 0 10.43-4.47 14.995 14.995 0 0 0 3-4.86 16.419 16.419 0 0 0 1.07-6v-.1a16.263 16.263 0 0 0-1.1-6 15.269 15.269 0 0 0-3-4.89 14.325 14.325 0 0 0-4.62-3.3 14.298 14.298 0 0 0-16.29 3.25 14.995 14.995 0 0 0-3 4.86 16.4 16.4 0 0 0-1.08 6v.1a16.263 16.263 0 0 0 1.1 6 15.223 15.223 0 0 0 3 4.89 14.295 14.295 0 0 0 4.62 3.3 14.003 14.003 0 0 0 5.87 1.2v.02zM262.58 73.53H265l23.64 29.75V73.53H291v34.2h-1.91L265 77.34v30.39h-2.39l-.03-34.2zM303 73.53h24v2.3h-21.51v14.12h19.35v2.3h-19.35v15.49H303V73.53zM335.74 73.53h24.33v2.3h-21.79v13.53h19.59v2.3h-19.59v13.78h22v2.3h-24.54V73.53zM369.13 73.53h14.37c1.912-.035 3.815.27 5.62.9a10.993 10.993 0 0 1 4 2.47 8.79 8.79 0 0 1 1.88 2.86 9.005 9.005 0 0 1 .68 3.49v.1a9.251 9.251 0 0 1-.76 3.83 8.729 8.729 0 0 1-2.1 2.91 10.807 10.807 0 0 1-3.18 2c-1.285.504-2.629.84-4 1L397 107.73h-3.22l-10.9-14.17h-11.21v14.17h-2.54v-34.2zm14.07 17.73c1.352.014 2.7-.168 4-.54a9.625 9.625 0 0 0 3.15-1.54 7.343 7.343 0 0 0 2.08-2.45 7.004 7.004 0 0 0 .76-3.31v-.1a6.605 6.605 0 0 0-2.56-5.49c-1.707-1.333-4.127-2-7.26-2h-11.7v15.43h11.53zM405.88 73.53h24.33v2.3h-21.79v13.53H428v2.3h-19.58v13.78h22v2.3h-24.54V73.53zM439.27 73.53h2.4l23.64 29.75V73.53h2.39v34.2h-1.9l-24.13-30.39v30.39h-2.39l-.01-34.2zM494.9 108.32a16.587 16.587 0 0 1-12.14-5.11 17.28 17.28 0 0 1-3.57-5.59 18.302 18.302 0 0 1-1.3-6.89v-.1a18.188 18.188 0 0 1 1.3-6.84 17.865 17.865 0 0 1 3.57-5.64A16.546 16.546 0 0 1 495 72.94a20.214 20.214 0 0 1 4.15.39 16.13 16.13 0 0 1 3.44 1.12 18.179 18.179 0 0 1 3 1.73 28.528 28.528 0 0 1 2.71 2.22l-1.81 1.86a27.339 27.339 0 0 0-2.34-2 14.703 14.703 0 0 0-2.61-1.59 15.318 15.318 0 0 0-3-1.05 15.227 15.227 0 0 0-3.54-.39 13.857 13.857 0 0 0-10.28 4.42 15.326 15.326 0 0 0-3 4.86 16.215 16.215 0 0 0-1.1 6v.1a16.082 16.082 0 0 0 1.12 6 15.588 15.588 0 0 0 3.05 4.89 14.127 14.127 0 0 0 4.57 3.27A13.67 13.67 0 0 0 495 106c2.23.057 4.442-.419 6.45-1.39a21.782 21.782 0 0 0 5.33-3.93l1.71 1.66a32.191 32.191 0 0 1-2.81 2.42 17.5 17.5 0 0 1-3.08 1.88 17.2 17.2 0 0 1-3.52 1.22 18.372 18.372 0 0 1-4.18.46zM517 73.53h24.33v2.3h-21.75v13.53h19.59v2.3h-19.59v13.78h22v2.3H517V73.53z" fill="#009fe3"/><g fill="#fff"><path d="M324.71 50.27l3.06-3.43c3.41 3 6.56 4.65 11.21 4.65 4.15 0 7.11-2.11 7.11-5.24 0-2.79-1.58-4.26-8.34-6-7.84-2-11.79-4.7-11.79-10.19 0-5.68 5.23-9.6 11.94-9.6a18.585 18.585 0 0 1 12.19 4.41l-2.86 3.67C344 26 341.19 25 337.84 25c-3.8 0-6.71 1.86-6.71 4.8 0 2.94 1.87 4.36 8.87 6.08 7.55 1.81 11.25 4.8 11.25 10.09 0 6.17-5.33 10-12.29 10a20.553 20.553 0 0 1-14.25-5.7zM273.43 38.23l-.002-.27c0-9.875 8.125-18 18-18 9.874 0 18 8.125 18 18 0 9.874-8.124 17.999-17.998 18-.144.004-.287.005-.431.005-9.638 0-17.57-7.931-17.57-17.57l.001-.165zm30.75 0c0-7.49-5.28-13.17-12.78-13.17-7.5 0-12.78 5.68-12.78 13.17s5.28 13.17 12.77 13.17c7.49 0 12.79-5.68 12.79-13.17zM257.83 21.08v4.46H237.6v10.29h18v4.51h-18v10.57h20.48v4.46h-25.46V21.08h25.21zM188.89 21.08L209 46.41V21.08h4.88v34.29h-4.1l-20.63-26v26h-4.88V21.08h4.62z"/></g><path d="M89.03 0L68.27 15.13v31.64l20.76 29.35V0zM89.03 112.82L9.24 0 0 6.76v117.96l20.75-15.12V51.18l51.9 73.54h22.7l16.38-11.9h-22.7z" fill="#009fe3"/><path d="M20.75 51.18v58.42L0 124.72h22.7l20.76-15.12V83.35L20.75 51.18zM89.03 76.12V0h22.7v112.82h-22.7L9.24 0h25.95l53.84 76.12z" fill="#fff"/><g fill="#009fe3"><path d="M192.9 152.53h-5.852v18.48h5.852c5.88 0 9.24-3.31 9.24-9.35 0-5.91-3.36-9.13-9.24-9.13zm.14 16.99h-4.396v-15.51h4.396c4.76 0 7.42 2.77 7.42 7.65 0 5.04-2.66 7.86-7.42 7.86zM220.396 171.01h1.876l-5.32-8.12c2.66-.53 4.312-2.38 4.312-5.1 0-3.25-2.408-5.26-6.104-5.26h-6.888v18.48h1.596v-7.93h5.264l5.264 7.93zm-10.528-17h5.264c2.912 0 4.452 1.32 4.452 3.78 0 2.47-1.54 3.81-4.452 3.81h-5.264v-7.59zM229.356 169.52v-7.16h8.736v-1.49h-8.736v-6.86h11.088v-1.48H227.76v18.48h13.132v-1.49h-11.536zM252.232 152.25c-4.228 0-6.776 2.46-6.776 5.32 0 2.77 1.764 4.23 6.888 5.09 4.116.7 5.46 1.77 5.46 3.62 0 2.26-2.212 3.52-5.292 3.52-3.248 0-5.516-1.4-6.328-3.94l-1.372 1.09c1.036 2.69 3.78 4.34 7.672 4.34 4.172 0 6.972-2.05 6.972-5.1 0-2.77-1.736-4.25-6.636-5.07-4.368-.75-5.684-1.76-5.684-3.72 0-2.07 1.876-3.67 5.124-3.67 2.94 0 4.62 1.07 5.6 3.67l1.372-1.09c-1.232-2.72-3.584-4.06-7-4.06zM271.188 152.53h-5.852v18.48h5.852c5.88 0 9.24-3.31 9.24-9.35 0-5.91-3.36-9.13-9.24-9.13zm.14 16.99h-4.396v-15.51h4.396c4.76 0 7.42 2.77 7.42 7.65 0 5.04-2.66 7.86-7.42 7.86zM288.156 169.52v-7.16h8.736v-1.49h-8.736v-6.86h11.088v-1.48H286.56v18.48h13.132v-1.49h-11.536zM319.544 152.53h-1.54v14.25l.084 2.49-1.54-2.77-9.296-13.97h-1.988v18.48h1.512v-14.25l-.084-2.5h.028l1.512 2.72 9.324 14.03h1.988v-18.48zM336.092 171.01h12.376v-1.49h-8.008c-.448 0-1.568.03-2.044.06v-.03c6.608-4.81 9.492-7.95 9.492-11.62 0-3.41-2.296-5.68-5.992-5.68s-5.908 2.27-6.272 5.6l1.4.81c.224-3 1.988-4.93 4.816-4.93 2.716 0 4.396 1.65 4.396 4.2 0 3.5-3.052 6.3-10.164 11.76v1.32zM359.976 171.29c4.396 0 6.776-3.36 6.776-9.52s-2.38-9.52-6.776-9.52-6.776 3.36-6.776 9.52 2.38 9.52 6.776 9.52zm0-1.43c-3.304 0-5.124-2.86-5.124-8.09 0-5.24 1.82-8.09 5.124-8.09 3.332 0 5.124 2.85 5.124 8.09 0 5.23-1.792 8.09-5.124 8.09zM376.3 152.53c-1.008 1.62-3.864 3.25-5.404 3.61l.42 1.43c1.792-.45 3.612-1.49 4.844-2.91-.028.86-.056 1.7-.056 2.46v13.89h1.596v-18.48h-1.4zM389.936 152.25c-3.808 0-6.244 2.29-6.244 5.88 0 3.58 2.408 5.88 6.104 5.88 2.352 0 5.068-1.29 5.404-4.29h.084c.084.48.112.98.112 1.52 0 4.81-1.316 8.56-5.46 8.56-2.884 0-4.088-1.4-4.592-3.44l-1.596.84c.868 2.58 2.912 4.09 6.216 4.09 4.34 0 6.888-3.25 6.888-9.52 0-5.77-2.408-9.52-6.916-9.52zm.028 1.51c2.688 0 4.536 1.82 4.536 4.4 0 2.35-1.876 4.31-4.592 4.31-2.8 0-4.536-1.68-4.536-4.31 0-2.72 1.736-4.4 4.592-4.4z"/></g></g></svg>