<?xml version="1.0" encoding="UTF-8" standalone="no"?><!DOCTYPE svg PUBLIC "-//W3C//DTD SVG 1.1//EN" "http://www.w3.org/Graphics/SVG/1.1/DTD/svg11.dtd"><svg width="100%" height="100%" viewBox="0 0 542 174" version="1.1" xmlns="http://www.w3.org/2000/svg" xmlns:xlink="http://www.w3.org/1999/xlink" xml:space="preserve" xmlns:serif="http://www.serif.com/" style="fill-rule:evenodd;clip-rule:evenodd;stroke-linejoin:round;stroke-miterlimit:1.41421;"><g id="Layer_1"><path d="M186.75,155.94l1.25,0l0,7.8l10.75,0l0,-7.8l1.25,0l0,16.8l-1.25,0l0,-7.87l-10.75,0l0,7.87l-1.25,0l0,-16.8Z" style="fill:#009fe3;fill-rule:nonzero;"/><path d="M212.33,155.82l1.2,0l7.82,16.92l-1.35,0l-2.14,-4.7l-9.91,0l-2.14,4.7l-1.3,0l7.82,-16.92Zm5,11.09l-4.42,-9.72l-4.44,9.72l8.86,0Z" style="fill:#009fe3;fill-rule:nonzero;"/><path d="M225.87,155.94l1.13,0l6.74,9.94l6.74,-9.94l1.18,0l0,16.8l-1.25,0l0,-14.6l-6.66,9.67l-0.1,0l-6.65,-9.67l0,14.59l-1.18,0l0.05,-16.79Z" style="fill:#009fe3;fill-rule:nonzero;"/><path d="M247.66,155.94l6.92,0c0.867,-0.013 1.729,0.122 2.55,0.4c0.677,0.223 1.296,0.596 1.81,1.09c0.709,0.697 1.1,1.656 1.08,2.65c0.011,0.514 -0.074,1.026 -0.25,1.51c-0.155,0.411 -0.378,0.793 -0.66,1.13c-0.266,0.316 -0.58,0.59 -0.93,0.81c-0.319,0.205 -0.653,0.386 -1,0.54c0.499,0.125 0.985,0.299 1.45,0.52c0.441,0.204 0.846,0.478 1.2,0.81c0.342,0.329 0.62,0.719 0.82,1.15c0.214,0.477 0.32,0.997 0.31,1.52c0.011,0.662 -0.137,1.317 -0.43,1.91c-0.288,0.569 -0.706,1.062 -1.22,1.44c-0.571,0.413 -1.211,0.721 -1.89,0.91c-0.801,0.223 -1.629,0.331 -2.46,0.32l-7.27,0l-0.03,-16.71Zm6.79,7.78c0.585,0.006 1.167,-0.072 1.73,-0.23c0.493,-0.134 0.958,-0.358 1.37,-0.66c0.383,-0.286 0.691,-0.66 0.9,-1.09c0.222,-0.468 0.331,-0.982 0.32,-1.5c0.024,-0.882 -0.378,-1.724 -1.08,-2.26c-0.913,-0.63 -2.013,-0.933 -3.12,-0.86l-5.66,0l0,6.65l5.54,-0.05Zm0.54,7.9c1.21,0.063 2.409,-0.263 3.42,-0.93c0.816,-0.575 1.293,-1.522 1.27,-2.52c0.032,-0.983 -0.47,-1.909 -1.31,-2.42c-1.156,-0.642 -2.471,-0.94 -3.79,-0.86l-5.68,0l0,6.77l6.09,-0.04Z" style="fill:#009fe3;fill-rule:nonzero;"/><path d="M272.57,173c-0.944,0.01 -1.882,-0.149 -2.77,-0.47c-0.819,-0.299 -1.563,-0.774 -2.18,-1.39c-0.637,-0.647 -1.125,-1.425 -1.43,-2.28c-0.351,-0.999 -0.52,-2.052 -0.5,-3.11l0,-9.82l1.25,0l0,9.7c-0.111,1.675 0.427,3.33 1.5,4.62c2.324,2.115 5.906,2.15 8.27,0.08c1.092,-1.264 1.636,-2.914 1.51,-4.58l0,-9.82l1.25,0l0,9.67c0.021,1.081 -0.149,2.157 -0.5,3.18c-0.302,0.866 -0.786,1.657 -1.42,2.32c-0.611,0.626 -1.352,1.111 -2.17,1.42c-0.899,0.331 -1.852,0.494 -2.81,0.48Z" style="fill:#009fe3;fill-rule:nonzero;"/><path d="M285.15,155.94l7.06,0c0.939,-0.018 1.873,0.131 2.76,0.44c0.747,0.252 1.43,0.665 2,1.21c0.402,0.4 0.722,0.876 0.94,1.4c0.228,0.545 0.343,1.13 0.34,1.72c0.011,0.646 -0.115,1.287 -0.37,1.88c-0.232,0.54 -0.572,1.027 -1,1.43c-0.457,0.423 -0.985,0.761 -1.56,1c-0.641,0.26 -1.313,0.435 -2,0.52l5.54,7.18l-1.58,0l-5.35,-7l-5.5,0l0,7l-1.25,0l-0.03,-16.78Zm6.91,8.71c0.676,0.012 1.35,-0.076 2,-0.26c0.559,-0.156 1.084,-0.414 1.55,-0.76c0.417,-0.322 0.759,-0.732 1,-1.2c0.253,-0.502 0.38,-1.058 0.37,-1.62c0.043,-1.05 -0.427,-2.058 -1.26,-2.7c-1.041,-0.722 -2.295,-1.075 -3.56,-1l-5.74,0l0,7.58l5.64,-0.04Z" style="fill:#009fe3;fill-rule:nonzero;"/><path d="M311.16,173c-1.221,0.021 -2.433,-0.21 -3.56,-0.68c-1.005,-0.426 -1.908,-1.06 -2.65,-1.86c-0.73,-0.798 -1.294,-1.733 -1.66,-2.75c-0.39,-1.073 -0.587,-2.208 -0.58,-3.35c-0.003,-1.12 0.197,-2.231 0.59,-3.28c0.377,-1.022 0.948,-1.963 1.68,-2.77c0.741,-0.808 1.635,-1.461 2.63,-1.92c1.069,-0.49 2.234,-0.736 3.41,-0.72c0.629,-0.005 1.258,0.041 1.88,0.14c0.54,0.088 1.07,0.233 1.58,0.43c0.483,0.191 0.949,0.426 1.39,0.7c0.449,0.282 0.877,0.596 1.28,0.94l-0.82,0.94c-0.319,-0.284 -0.653,-0.551 -1,-0.8c-0.372,-0.256 -0.771,-0.471 -1.19,-0.64c-0.462,-0.185 -0.941,-0.326 -1.43,-0.42c-0.573,-0.11 -1.156,-0.164 -1.74,-0.16c-0.97,-0.012 -1.93,0.193 -2.81,0.6c-0.821,0.381 -1.556,0.926 -2.16,1.6c-0.62,0.705 -1.105,1.519 -1.43,2.4c-0.347,0.92 -0.524,1.896 -0.52,2.88c-0.008,1.021 0.158,2.035 0.49,3c0.305,0.89 0.792,1.708 1.43,2.4c0.638,0.68 1.411,1.218 2.27,1.58c0.95,0.396 1.971,0.593 3,0.58c0.524,-0.001 1.047,-0.055 1.56,-0.16c0.494,-0.099 0.979,-0.24 1.45,-0.42c0.445,-0.169 0.877,-0.373 1.29,-0.61c0.374,-0.212 0.728,-0.457 1.06,-0.73l0,-4.81l-5.6,0l0,-1.11l6.79,0l0,6.46c-0.854,0.725 -1.811,1.318 -2.84,1.76c-1.193,0.527 -2.486,0.793 -3.79,0.78Z" style="fill:#009fe3;fill-rule:nonzero;"/><path d="M330.05,171.8l6.26,-5.66c0.667,-0.62 1.247,-1.187 1.74,-1.7c0.421,-0.449 0.806,-0.93 1.15,-1.44c0.273,-0.398 0.489,-0.832 0.64,-1.29c0.127,-0.418 0.192,-0.853 0.19,-1.29c0.008,-0.513 -0.098,-1.022 -0.31,-1.49c-0.197,-0.432 -0.479,-0.82 -0.83,-1.14c-0.35,-0.315 -0.757,-0.56 -1.2,-0.72c-0.465,-0.169 -0.956,-0.253 -1.45,-0.25c-0.975,-0.031 -1.935,0.249 -2.74,0.8c-0.853,0.644 -1.59,1.429 -2.18,2.32l-0.94,-0.62c0.343,-0.527 0.724,-1.029 1.14,-1.5c0.384,-0.43 0.821,-0.809 1.3,-1.13c0.484,-0.321 1.013,-0.567 1.57,-0.73c0.65,-0.184 1.324,-0.272 2,-0.26c0.682,-0.007 1.36,0.112 2,0.35c1.165,0.428 2.11,1.308 2.62,2.44c0.257,0.572 0.386,1.193 0.38,1.82c0.005,0.546 -0.076,1.089 -0.24,1.61c-0.18,0.534 -0.436,1.039 -0.76,1.5c-0.393,0.561 -0.831,1.09 -1.31,1.58c-0.527,0.553 -1.16,1.167 -1.9,1.84l-5.18,4.7l9.5,0l0,1.2l-11.45,0l0,-0.94Z" style="fill:#009fe3;fill-rule:nonzero;"/><path d="M352.51,173c-1.007,0.013 -2.001,-0.228 -2.89,-0.7c-0.853,-0.463 -1.597,-1.104 -2.18,-1.88c-0.62,-0.831 -1.087,-1.766 -1.38,-2.76c-0.323,-1.07 -0.485,-2.182 -0.48,-3.3c-0.005,-1.122 0.16,-2.238 0.49,-3.31c0.298,-0.999 0.773,-1.937 1.4,-2.77c0.592,-0.78 1.342,-1.428 2.2,-1.9c0.887,-0.48 1.882,-0.725 2.89,-0.71c1.007,-0.013 2.001,0.228 2.89,0.7c0.853,0.463 1.597,1.104 2.18,1.88c0.615,0.829 1.079,1.76 1.37,2.75c0.323,1.07 0.485,2.182 0.48,3.3c0.004,1.122 -0.161,2.238 -0.49,3.31c-0.299,0.999 -0.773,1.937 -1.4,2.77c-0.592,0.78 -1.342,1.428 -2.2,1.9c-0.883,0.482 -1.874,0.73 -2.88,0.72Zm0,-1.13c0.822,0.012 1.632,-0.202 2.34,-0.62c0.706,-0.423 1.313,-0.993 1.78,-1.67c0.506,-0.733 0.888,-1.543 1.13,-2.4c0.267,-0.916 0.402,-1.866 0.4,-2.82c0.001,-0.957 -0.134,-1.91 -0.4,-2.83c-0.241,-0.862 -0.626,-1.677 -1.14,-2.41c-0.477,-0.678 -1.09,-1.25 -1.8,-1.68c-1.449,-0.839 -3.241,-0.839 -4.69,0c-0.706,0.423 -1.313,0.993 -1.78,1.67c-0.506,0.732 -0.888,1.543 -1.13,2.4c-0.267,0.916 -0.402,1.866 -0.4,2.82c-0.002,0.954 0.133,1.904 0.4,2.82c0.244,0.861 0.629,1.675 1.14,2.41c0.475,0.683 1.088,1.259 1.8,1.69c0.722,0.439 1.555,0.665 2.4,0.65l-0.05,-0.03Z" style="fill:#009fe3;fill-rule:nonzero;"/><path d="M366.19,157.11l-3.24,1.1l-0.34,-1l3.85,-1.42l1,0l0,16.92l-1.25,0l-0.02,-15.6Z" style="fill:#009fe3;fill-rule:nonzero;"/><path d="M380.305,155.833c1.55,0 2.792,0.379 3.725,1.138c0.933,0.758 1.4,1.771 1.4,3.037c0,0.95 -0.258,1.759 -0.775,2.425c-0.517,0.667 -1.233,1.142 -2.15,1.425l0,0.025c1.117,0.284 2.004,0.809 2.663,1.575c0.658,0.767 0.987,1.684 0.987,2.75c0,0.917 -0.242,1.721 -0.725,2.413c-0.483,0.691 -1.171,1.229 -2.062,1.612c-0.892,0.384 -1.913,0.575 -3.063,0.575c-1.133,0 -2.142,-0.191 -3.025,-0.575c-0.883,-0.383 -1.571,-0.921 -2.062,-1.612c-0.492,-0.692 -0.738,-1.496 -0.738,-2.413c0,-1.066 0.329,-1.983 0.988,-2.75c0.658,-0.766 1.545,-1.291 2.662,-1.575l0,-0.025c-0.917,-0.283 -1.633,-0.758 -2.15,-1.425c-0.517,-0.666 -0.775,-1.475 -0.775,-2.425c0,-1.266 0.463,-2.279 1.388,-3.037c0.925,-0.759 2.162,-1.138 3.712,-1.138Zm0,1.15c-1.167,0 -2.092,0.284 -2.775,0.85c-0.683,0.567 -1.025,1.334 -1.025,2.3c0,0.967 0.346,1.738 1.038,2.313c0.691,0.575 1.612,0.862 2.762,0.862c1.15,0 2.075,-0.287 2.775,-0.862c0.7,-0.575 1.05,-1.346 1.05,-2.313c0,-0.966 -0.346,-1.733 -1.037,-2.3c-0.692,-0.566 -1.621,-0.85 -2.788,-0.85Zm0,14.675c1.367,0 2.467,-0.325 3.3,-0.975c0.833,-0.65 1.25,-1.508 1.25,-2.575c0,-1.083 -0.417,-1.958 -1.25,-2.625c-0.833,-0.666 -1.933,-1 -3.3,-1c-1.35,0 -2.442,0.334 -3.275,1c-0.833,0.667 -1.25,1.542 -1.25,2.625c0,1.067 0.413,1.925 1.238,2.575c0.825,0.65 1.92,0.975 3.287,0.975Z" style="fill:#009fe3;fill-rule:nonzero;"/><path d="M198.53,108.32c-4.577,0.046 -8.974,-1.805 -12.14,-5.11c-1.54,-1.615 -2.752,-3.514 -3.57,-5.59c-0.87,-2.192 -1.308,-4.532 -1.29,-6.89l0,-0.1c-0.015,-2.342 0.423,-4.664 1.29,-6.84c0.825,-2.087 2.036,-4.001 3.57,-5.64c3.171,-3.368 7.614,-5.255 12.24,-5.2c1.393,-0.013 2.784,0.117 4.15,0.39c1.185,0.243 2.339,0.619 3.44,1.12c1.053,0.48 2.057,1.059 3,1.73c0.948,0.684 1.853,1.425 2.71,2.22l-1.81,1.86c-0.745,-0.71 -1.53,-1.378 -2.35,-2c-0.812,-0.619 -1.687,-1.152 -2.61,-1.59c-0.961,-0.453 -1.966,-0.804 -3,-1.05c-1.161,-0.268 -2.349,-0.399 -3.54,-0.39c-3.894,-0.038 -7.629,1.568 -10.28,4.42c-1.296,1.418 -2.313,3.066 -3,4.86c-0.743,1.912 -1.116,3.948 -1.1,6l0,0.1c-0.013,2.053 0.367,4.09 1.12,6c0.703,1.806 1.738,3.464 3.05,4.89c1.289,1.385 2.843,2.497 4.57,3.27c1.798,0.808 3.749,1.217 5.72,1.2c2.23,0.057 4.442,-0.419 6.45,-1.39c1.967,-1.031 3.764,-2.356 5.33,-3.93l1.71,1.66c-0.889,0.86 -1.828,1.668 -2.81,2.42c-0.959,0.731 -1.991,1.362 -3.08,1.88c-1.126,0.533 -2.306,0.942 -3.52,1.22c-1.393,0.325 -2.819,0.486 -4.25,0.48Z" style="fill:#009fe3;fill-rule:nonzero;"/><path d="M235.25,108.32c-4.712,0.067 -9.24,-1.859 -12.46,-5.3c-1.506,-1.622 -2.684,-3.521 -3.47,-5.59c-0.817,-2.135 -1.231,-4.404 -1.22,-6.69l0,-0.1c-0.008,-2.298 0.416,-4.578 1.25,-6.72c0.799,-2.082 1.983,-3.996 3.49,-5.64c1.533,-1.652 3.388,-2.972 5.45,-3.88c2.223,-0.979 4.631,-1.47 7.06,-1.44c4.715,-0.081 9.248,1.848 12.46,5.3c1.505,1.623 2.683,3.521 3.47,5.59c0.816,2.136 1.23,4.404 1.22,6.69c0.017,0.011 0.027,0.03 0.027,0.05c0,0.02 -0.01,0.039 -0.027,0.05c0.008,2.298 -0.416,4.578 -1.25,6.72c-0.799,2.082 -1.983,3.996 -3.49,5.64c-1.526,1.647 -3.369,2.967 -5.42,3.88c-2.233,0.983 -4.651,1.474 -7.09,1.44Zm0.1,-2.3c3.95,0.049 7.741,-1.576 10.43,-4.47c1.302,-1.413 2.321,-3.063 3,-4.86c0.728,-1.916 1.091,-3.951 1.07,-6l0,-0.1c0.015,-2.051 -0.358,-4.087 -1.1,-6c-0.682,-1.805 -1.7,-3.464 -3,-4.89c-1.304,-1.397 -2.875,-2.519 -4.62,-3.3c-5.552,-2.508 -12.126,-1.197 -16.29,3.25c-1.302,1.413 -2.321,3.063 -3,4.86c-0.732,1.915 -1.098,3.95 -1.08,6l0,0.1c-0.015,2.051 0.358,4.087 1.1,6c0.681,1.805 1.699,3.465 3,4.89c1.304,1.398 2.875,2.52 4.62,3.3c1.847,0.819 3.85,1.228 5.87,1.2l0,0.02Z" style="fill:#009fe3;fill-rule:nonzero;"/><path d="M262.58,73.53l2.42,0l23.64,29.75l0,-29.75l2.36,0l0,34.2l-1.91,0l-24.09,-30.39l0,30.39l-2.39,0l-0.03,-34.2Z" style="fill:#009fe3;fill-rule:nonzero;"/><path d="M303,73.53l24,0l0,2.3l-21.51,0l0,14.12l19.35,0l0,2.3l-19.35,0l0,15.49l-2.49,0l0,-34.21Z" style="fill:#009fe3;fill-rule:nonzero;"/><path d="M335.74,73.53l24.33,0l0,2.3l-21.79,0l0,13.53l19.59,0l0,2.3l-19.59,0l0,13.78l22,0l0,2.3l-24.54,0l0,-34.21Z" style="fill:#009fe3;fill-rule:nonzero;"/><path d="M369.13,73.53l14.37,0c1.912,-0.035 3.815,0.27 5.62,0.9c1.496,0.525 2.86,1.368 4,2.47c0.808,0.821 1.447,1.793 1.88,2.86c0.456,1.107 0.688,2.293 0.68,3.49l0,0.1c0.022,1.316 -0.237,2.622 -0.76,3.83c-0.491,1.105 -1.206,2.096 -2.1,2.91c-0.935,0.847 -2.011,1.524 -3.18,2c-1.285,0.504 -2.629,0.84 -4,1l11.36,14.64l-3.22,0l-10.9,-14.17l-11.21,0l0,14.17l-2.54,0l0,-34.2Zm14.07,17.73c1.352,0.014 2.7,-0.168 4,-0.54c1.135,-0.316 2.203,-0.838 3.15,-1.54c0.866,-0.653 1.576,-1.49 2.08,-2.45c0.521,-1.024 0.782,-2.161 0.76,-3.31l0,-0.1c0.086,-2.135 -0.869,-4.184 -2.56,-5.49c-1.707,-1.333 -4.127,-2 -7.26,-2l-11.7,0l0,15.43l11.53,0Z" style="fill:#009fe3;fill-rule:nonzero;"/><path d="M405.88,73.53l24.33,0l0,2.3l-21.79,0l0,13.53l19.58,0l0,2.3l-19.58,0l0,13.78l22,0l0,2.3l-24.54,0l0,-34.21Z" style="fill:#009fe3;fill-rule:nonzero;"/><path d="M439.27,73.53l2.4,0l23.64,29.75l0,-29.75l2.39,0l0,34.2l-1.9,0l-24.13,-30.39l0,30.39l-2.39,0l-0.01,-34.2Z" style="fill:#009fe3;fill-rule:nonzero;"/><path d="M494.9,108.32c-4.577,0.046 -8.974,-1.805 -12.14,-5.11c-1.54,-1.615 -2.752,-3.514 -3.57,-5.59c-0.873,-2.191 -1.315,-4.531 -1.3,-6.89l0,-0.1c-0.011,-2.342 0.43,-4.665 1.3,-6.84c0.825,-2.087 2.036,-4.001 3.57,-5.64c3.17,-3.372 7.613,-5.263 12.24,-5.21c1.393,-0.013 2.784,0.117 4.15,0.39c1.185,0.243 2.339,0.619 3.44,1.12c1.053,0.48 2.057,1.059 3,1.73c0.948,0.684 1.853,1.425 2.71,2.22l-1.81,1.86c-0.742,-0.71 -1.523,-1.378 -2.34,-2c-0.812,-0.619 -1.687,-1.152 -2.61,-1.59c-0.961,-0.453 -1.966,-0.805 -3,-1.05c-1.161,-0.268 -2.349,-0.399 -3.54,-0.39c-3.894,-0.038 -7.629,1.568 -10.28,4.42c-1.296,1.418 -2.313,3.066 -3,4.86c-0.743,1.912 -1.116,3.948 -1.1,6l0,0.1c-0.013,2.053 0.367,4.09 1.12,6c0.704,1.805 1.738,3.464 3.05,4.89c1.289,1.385 2.843,2.497 4.57,3.27c1.771,0.807 3.694,1.226 5.64,1.23c2.23,0.057 4.442,-0.419 6.45,-1.39c1.967,-1.031 3.764,-2.356 5.33,-3.93l1.71,1.66c-0.889,0.86 -1.828,1.668 -2.81,2.42c-0.959,0.731 -1.991,1.361 -3.08,1.88c-1.126,0.533 -2.306,0.942 -3.52,1.22c-1.371,0.313 -2.774,0.467 -4.18,0.46Z" style="fill:#009fe3;fill-rule:nonzero;"/><path d="M517,73.53l24.33,0l0,2.3l-21.75,0l0,13.53l19.59,0l0,2.3l-19.59,0l0,13.78l22,0l0,2.3l-24.58,0l0,-34.21Z" style="fill:#009fe3;fill-rule:nonzero;"/><g id="NEOS"><path d="M324.71,50.27l3.06,-3.43c3.41,3 6.56,4.65 11.21,4.65c4.15,0 7.11,-2.11 7.11,-5.24c0,-2.79 -1.58,-4.26 -8.34,-6c-7.84,-2 -11.79,-4.7 -11.79,-10.19c0,-5.68 5.23,-9.6 11.94,-9.6c4.46,-0.041 8.789,1.525 12.19,4.41l-2.86,3.67c-3.23,-2.54 -6.04,-3.54 -9.39,-3.54c-3.8,0 -6.71,1.86 -6.71,4.8c0,2.94 1.87,4.36 8.87,6.08c7.55,1.81 11.25,4.8 11.25,10.09c0,6.17 -5.33,10 -12.29,10c-5.306,0.012 -10.416,-2.032 -14.25,-5.7Z" style="fill:#fff;fill-rule:nonzero;"/><path d="M273.43,38.23c-0.001,-0.09 -0.002,-0.18 -0.002,-0.27c0,-9.875 8.125,-18 18,-18c9.874,0 18,8.125 18,18c0,9.874 -8.124,17.999 -17.998,18c-0.144,0.004 -0.287,0.005 -0.431,0.005c-9.638,0 -17.57,-7.931 -17.57,-17.57c0,-0.055 0,-0.11 0.001,-0.165Zm30.75,0c0,-7.49 -5.28,-13.17 -12.78,-13.17c-7.5,0 -12.78,5.68 -12.78,13.17c0,7.49 5.28,13.17 12.77,13.17c7.49,0 12.79,-5.68 12.79,-13.17Z" style="fill:#fff;fill-rule:nonzero;"/><path d="M257.83,21.08l0,4.46l-20.23,0l0,10.29l18,0l0,4.51l-18,0l0,10.57l20.48,0l0,4.46l-25.46,0l0,-34.29l25.21,0Z" style="fill:#fff;fill-rule:nonzero;"/><path d="M188.89,21.08l20.11,25.33l0,-25.33l4.88,0l0,34.29l-4.1,0l-20.63,-26l0,26l-4.88,0l0,-34.29l4.62,0Z" style="fill:#fff;fill-rule:nonzero;"/></g><path d="M89.03,0l-20.76,15.13l0,31.64l20.76,29.35l0,-76.12Z" style="fill:#009fe3;fill-rule:nonzero;"/><path d="M89.03,112.82l-79.79,-112.82l-9.24,6.76l0,117.96l20.75,-15.12l0,-58.42l51.9,73.54l22.7,0l16.38,-11.9l-22.7,0Z" style="fill:#009fe3;fill-rule:nonzero;"/><path d="M20.75,51.18l0,58.42l-20.75,15.12l22.7,0l20.76,-15.12l0,-26.25l-22.71,-32.17Z" style="fill:#fff;fill-rule:nonzero;"/><path d="M89.03,76.12l0,-76.12l22.7,0l0,112.82l-22.7,0l-79.79,-112.82l25.95,0l53.84,76.12Z" style="fill:#fff;fill-rule:nonzero;"/></g></svg>