<?xml version="1.0" encoding="UTF-8"?>
<svg width="111px" height="111px" viewBox="0 0 111 111" version="1.1" xmlns="http://www.w3.org/2000/svg" xmlns:xlink="http://www.w3.org/1999/xlink">
    <!-- Generator: Sketch 40.2 (33826) - http://www.bohemiancoding.com/sketch -->
    <title>logo_thinkmill</title>
    <desc>Created with Sketch.</desc>
    <defs>
        <linearGradient x1="0%" y1="0%" x2="100%" y2="100%" id="linearGradient-1">
            <stop stop-color="#FF7E38" offset="0%"></stop>
            <stop stop-color="#FF315F" offset="100%"></stop>
        </linearGradient>
    </defs>
    <g id="Page-1" stroke="none" stroke-width="1" fill="none" fill-rule="evenodd">
        <g id="TM---Home---1.0-Copy" transform="translate(-320.000000, -100.000000)" fill="url(#linearGradient-1)">
            <path d="M375.5,211 C406.151804,211 431,186.151804 431,155.5 C431,124.848196 406.151804,100 375.5,100 C344.848196,100 320,124.848196 320,155.5 C320,186.151804 344.848196,211 375.5,211 Z M375.5,203.327941 C401.914643,203.327941 423.327941,181.914643 423.327941,155.5 C423.327941,129.085357 401.914643,107.672059 375.5,107.672059 C349.085357,107.672059 327.672059,129.085357 327.672059,155.5 C327.672059,181.914643 349.085357,203.327941 375.5,203.327941 Z M361.261965,166.264388 C358.911376,166.264388 358.018153,165.183118 358.018153,162.503447 L358.018153,150.562459 L362.672318,150.562459 L362.672318,146.472435 L358.018153,146.472435 L358.018153,140.501941 L352.658812,140.501941 L352.658812,146.472435 L348.662812,146.472435 L348.662812,150.562459 L352.658812,150.562459 L352.658812,163.302647 C352.658812,168.520953 354.868365,170.636482 359.898624,170.636482 C360.885871,170.636482 362.108176,170.448435 362.907376,170.213376 L362.907376,166.029329 C362.531282,166.170365 361.873118,166.264388 361.261965,166.264388 Z M394.1702,145.908294 C390.550294,145.908294 388.246718,147.506694 386.507282,150.233376 C385.284976,147.412671 382.746341,145.908294 379.455518,145.908294 C376.634812,145.908294 374.519282,147.036576 372.826859,149.340153 L372.732835,149.340153 L372.732835,146.472435 L367.608553,146.472435 L367.608553,170.354412 L372.967894,170.354412 L372.967894,157.567212 C372.967894,152.960059 374.801353,150.233376 377.998153,150.233376 C380.771847,150.233376 382.276224,152.207871 382.276224,155.592718 L382.276224,170.354412 L387.635565,170.354412 L387.635565,157.473188 C387.635565,152.913047 389.516035,150.233376 392.665824,150.233376 C395.345494,150.233376 396.990906,151.9258 396.990906,156.156859 L396.990906,170.354412 L402.350247,170.354412 L402.350247,155.639729 C402.350247,149.199118 399.247471,145.908294 394.1702,145.908294 Z" id="Oval-6"></path>
        </g>
    </g>
</svg>