<?xml version="1.0" encoding="UTF-8"?>
<svg width="27px" height="26px" viewBox="0 0 27 26" version="1.1" xmlns="http://www.w3.org/2000/svg" xmlns:xlink="http://www.w3.org/1999/xlink">
    <!-- Generator: Sketch 42 (36781) - http://www.bohemiancoding.com/sketch -->
    <title>Clipped</title>
    <desc>Created with Sketch.</desc>
    <defs>
        <rect id="path-1" x="0" y="0" width="27" height="26"></rect>
        <rect id="path-3" x="0" y="0" width="1440" height="2364"></rect>
        <path d="M13.2,0 C6,0 0.2,5.8 0.2,13 C0.2,18.7 3.9,23.6 9.1,25.3 C9.8,25.4 10,25 10,24.7 L10,22.5 C6.4,23.3 5.6,20.8 5.6,20.8 C5,19.3 4.2,18.9 4.2,18.9 C3,18.1 4.3,18.1 4.3,18.1 C5.6,18.2 6.3,19.4 6.3,19.4 C7.5,21.4 9.3,20.8 10.1,20.5 C10.2,19.7 10.6,19.1 10.9,18.8 C8,18.5 5,17.4 5,12.4 C5,11 5.5,9.8 6.3,8.9 C6.2,8.6 5.7,7.2 6.4,5.5 C6.4,5.5 7.5,5.2 10,6.8 C11,6.5 12.1,6.4 13.3,6.4 C14.4,6.4 15.5,6.5 16.6,6.8 C19.1,5.1 20.2,5.5 20.2,5.5 C20.9,7.3 20.5,8.6 20.3,8.9 C21.1,9.8 21.6,11 21.6,12.4 C21.6,17.4 18.6,18.5 15.7,18.8 C16.2,19.2 16.6,20 16.6,21.2 L16.6,24.8 C16.6,25.1 16.8,25.6 17.5,25.4 C22.7,23.7 26.4,18.8 26.4,13.1 C26.2,5.8 20.4,0 13.2,0" id="path-5"></path>
        <rect id="path-7" x="0" y="0" width="27" height="26"></rect>
    </defs>
    <g id="Page-1" stroke="none" stroke-width="1" fill="none" fill-rule="evenodd">
        <g id="github">
            <g id="Clipped">
                <mask id="mask-2" fill="white">
                    <use xlink:href="#path-1"></use>
                </mask>
                <g id="SVGID_9_"></g>
                <g mask="url(#mask-2)">
                    <g transform="translate(-613.000000, -504.000000)">
                        <mask id="mask-4" fill="white">
                            <use xlink:href="#path-3"></use>
                        </mask>
                        <g id="SVGID_11_" stroke="none" fill="none"></g>
                        <g id="Clipped" stroke="none" stroke-width="1" fill="none" fill-rule="evenodd" mask="url(#mask-4)">
                            <g transform="translate(613.000000, 504.000000)">
                                <mask id="mask-6" fill="white">
                                    <use xlink:href="#path-5"></use>
                                </mask>
                                <use id="SVGID_13_" stroke="none" fill="#000000" fill-rule="evenodd" xlink:href="#path-5"></use>
                                <g id="Clipped" stroke="none" stroke-width="1" fill="none" fill-rule="evenodd" mask="url(#mask-6)">
                                    <mask id="mask-8" fill="white">
                                        <use xlink:href="#path-7"></use>
                                    </mask>
                                    <g id="SVGID_15_"></g>
                                    <rect id="Rectangle-path" fill="#000000" fill-rule="nonzero" mask="url(#mask-8)" x="-4.8" y="-5" width="36" height="35.4"></rect>
                                </g>
                            </g>
                        </g>
                    </g>
                </g>
            </g>
        </g>
    </g>
</svg>